<?xml version="1.0" standalone="no"?>
<!DOCTYPE svg PUBLIC "-//W3C//DTD SVG 20010904//EN"
 "http://www.w3.org/TR/2001/REC-SVG-20010904/DTD/svg10.dtd">
<svg version="1.0" xmlns="http://www.w3.org/2000/svg"
 width="230.000000pt" height="230.000000pt" viewBox="0 0 230.000000 230.000000"
 preserveAspectRatio="xMidYMid meet">
<metadata>
Created by potrace 1.11, written by Peter Selinger 2001-2013
</metadata>
<g transform="translate(0.000000,230.000000) scale(0.100000,-0.100000)"
fill="#000000" stroke="none">
<path d="M1148 2135 c-2 -1 -37 -5 -78 -9 -41 -4 -93 -11 -115 -17 -22 -5 -50
-12 -63 -15 -49 -10 -200 -82 -268 -127 -40 -26 -105 -81 -145 -122 l-74 -75
-202 0 -203 0 0 -23 0 -22 172 1 c95 0 179 -2 185 -4 9 -3 8 -11 -6 -31 -68
-95 -133 -267 -148 -390 -3 -25 -7 -53 -9 -61 -1 -8 -3 -25 -3 -37 -1 -22 -4
-23 -96 -23 -95 0 -95 0 -95 -25 0 -25 0 -25 95 -25 92 0 95 -1 96 -22 7 -158
69 -356 148 -472 25 -38 27 -45 13 -48 -10 -2 -92 -3 -184 -3 l-168 1 0 -23 0
-23 203 0 202 0 49 -57 c108 -123 295 -233 474 -280 77 -20 123 -25 222 -26
121 -1 151 2 242 22 283 64 553 289 664 551 15 36 33 70 40 75 7 6 55 10 108
10 94 -1 96 -1 96 22 0 22 -2 23 -95 23 -104 0 -101 -2 -85 65 26 118 27 273
2 398 l-18 87 98 0 c98 0 98 0 98 25 l0 25 -105 0 -104 0 -40 86 c-146 312
-451 531 -781 560 -36 3 -77 7 -92 9 -15 1 -29 1 -30 0z m176 -181 c239 -50
448 -206 560 -419 l26 -50 -434 -3 -434 -2 -30 29 c-24 24 -36 29 -63 26 -55
-7 -76 -40 -70 -107 1 -19 39 -48 68 -52 24 -4 69 19 77 39 5 13 57 15 458 13
l453 -3 18 -65 c35 -124 30 -343 -12 -453 l-11 -27 -569 0 -569 0 -17 26 c-20
31 -68 53 -101 46 -97 -18 -97 -169 0 -188 40 -7 92 16 101 46 3 11 14 21 23
21 9 1 263 2 564 3 367 1 548 -2 548 -9 0 -32 -102 -178 -174 -250 -221 -219
-531 -295 -818 -199 -78 26 -197 89 -243 129 l-40 34 261 1 260 0 22 -29 c26
-36 67 -50 109 -39 89 23 84 157 -5 180 -40 11 -94 -12 -109 -45 -10 -22 -11
-22 -284 -20 -151 0 -283 2 -295 2 -24 1 -109 110 -152 196 -50 100 -80 215
-86 320 -1 20 6 20 635 23 l637 2 12 -30 c16 -39 67 -70 116 -70 105 0 169
116 111 201 -28 41 -60 59 -110 59 -63 0 -127 -48 -127 -95 0 -13 -71 -15
-638 -15 l-639 0 4 48 c6 73 30 168 62 242 33 80 110 199 149 232 l28 23 374
-1 c434 -2 410 -1 410 -15 0 -31 61 -62 105 -53 110 20 95 184 -17 184 -34 0
-46 -6 -74 -35 l-33 -35 -363 0 -363 1 35 29 c77 64 257 143 353 157 23 3 44
7 45 8 10 9 198 1 256 -11z"/>
</g>
</svg>
