<?xml version="1.0" encoding="UTF-8" standalone="no"?>
<!DOCTYPE svg PUBLIC "-//W3C//DTD SVG 1.1//EN" "http://www.w3.org/Graphics/SVG/1.1/DTD/svg11.dtd">
<svg xmlns="http://www.w3.org/2000/svg" version="1.1" xmlns:dc="http://purl.org/dc/elements/1.1/" xmlns:xl="http://www.w3.org/1999/xlink" viewBox="49 97 258 177" width="258" height="177">
  <defs>
    <linearGradient x1="0" x2="1" id="Gradient" gradientUnits="userSpaceOnUse">
      <stop offset="0" stop-color="#77c167"/>
      <stop offset="1" stop-color="white"/>
    </linearGradient>
    <linearGradient id="Obj_Gradient" xl:href="#Gradient" gradientTransform="translate(257.47083 136.43539) rotate(180) scale(97.56925)"/>
    <linearGradient id="Obj_Gradient_2" xl:href="#Gradient" gradientTransform="translate(265.97477 173.86338) rotate(180) scale(121.99932)"/>
    <linearGradient id="Obj_Gradient_3" xl:href="#Gradient" gradientTransform="translate(202.99718 155.22454) rotate(180) scale(124.10903)"/>
    <linearGradient id="Obj_Gradient_4" xl:href="#Gradient" gradientTransform="translate(174.7781 192.39848) rotate(180) scale(70.378145)"/>
    <linearGradient id="Obj_Gradient_5" xl:href="#Gradient" gradientTransform="translate(187.68533 118.13475) rotate(180) scale(88.95466)"/>
  </defs>
  <metadata> Produced by OmniGraffle 7.18.6\n2025-04-02 14:10:35 +0000</metadata>
  <g id="Logo_vertical" fill="none" stroke="none" stroke-opacity="1" fill-opacity="1" stroke-dasharray="none">
    <title>Logo vertical</title>
    <g id="Logo_vertical_Layer_1">
      <title>Layer 1</title>
      <g id="Group_36">
        <g id="Graphic_14">
          <title>Rectangle</title>
          <rect x="159.90158" y="134.95104" width="97.56925" height="2.9686864" fill="url(#Obj_Gradient)"/>
        </g>
        <g id="Graphic_13">
          <rect x="143.97545" y="172.37904" width="121.99932" height="2.9686864" fill="url(#Obj_Gradient_2)"/>
        </g>
        <g id="Graphic_12">
          <rect x="78.88815" y="153.7402" width="124.10903" height="2.9686864" fill="url(#Obj_Gradient_3)"/>
        </g>
        <g id="Graphic_11">
          <rect x="104.39996" y="190.91414" width="70.378145" height="2.9686864" fill="url(#Obj_Gradient_4)"/>
        </g>
        <g id="Graphic_10">
          <title>Rectangle</title>
          <rect x="98.73067" y="116.65041" width="88.95466" height="2.9686864" fill="url(#Obj_Gradient_5)"/>
        </g>
        <g id="Graphic_9">
          <title>Circle</title>
          <circle cx="175.0148" cy="158.48885" r="56.6930036451332" stroke="#005caa" stroke-linecap="round" stroke-linejoin="round" stroke-width="9"/>
        </g>
        <g id="Graphic_8">
          <title>Circle</title>
          <circle cx="179.11388" cy="192.39848" r="5.90315903496199" fill="#005caa"/>
        </g>
        <g id="Graphic_7">
          <title>Circle</title>
          <circle cx="143.68179" cy="173.8795" r="5.90741087101371" fill="#005caa"/>
        </g>
        <g id="Graphic_6">
          <title>Circle</title>
          <circle cx="210.31824" cy="154.89842" r="8.2417453170529" fill="#005caa"/>
        </g>
        <g id="Graphic_5">
          <title>Circle</title>
          <circle cx="98.89665" cy="155.53283" r="4.4263062116096" fill="#005caa"/>
        </g>
        <g id="Graphic_4">
          <title>Circle</title>
          <circle cx="246.2938" cy="136.43539" r="4.01102989975986" fill="#005caa"/>
        </g>
        <g id="Graphic_3">
          <title>Circle</title>
          <circle cx="160.04682" cy="136.43539" r="4.95071650208541" fill="#005caa"/>
        </g>
        <g id="Graphic_2">
          <title>Circle</title>
          <circle cx="192.12161" cy="118.13475" r="5.90315903496199" fill="#005caa"/>
        </g>
      </g>
      <g id="Group_35">
        <g id="Graphic_22">
          <path d="M 49.54939 241.59383 L 58.08539 241.59383 C 59.64007 241.59383 61.099386 241.7185 62.46339 241.96783 C 63.8274 242.21717 65.02272 242.65716 66.04939 243.28783 C 67.076065 243.9185 67.88272 244.7765 68.46939 245.86183 C 69.05606 246.94717 69.34939 248.32583 69.34939 249.99783 C 69.34939 251.7285 69.03406 253.14383 68.40339 254.24383 C 67.77272 255.34384 66.922065 256.20916 65.85139 256.83983 C 64.78072 257.4705 63.54873 257.90317 62.15539 258.13783 C 60.76205 258.3725 59.3174 258.48983 57.82139 258.48983 L 52.71739 258.48983 L 52.71739 273.18583 L 49.54939 273.18583 Z M 52.71739 244.67383 L 52.71739 255.40983 L 57.95339 255.40983 C 59.12673 255.40983 60.212055 255.3365 61.20939 255.18983 C 62.20673 255.04317 63.06472 254.7645 63.78339 254.35383 C 64.50206 253.94317 65.05939 253.38584 65.45539 252.68183 C 65.851395 251.97783 66.04939 251.08317 66.04939 249.99783 C 66.04939 248.9125 65.851395 248.02517 65.45539 247.33583 C 65.05939 246.6465 64.5094 246.10384 63.80539 245.70783 C 63.10139 245.31183 62.280064 245.0405 61.34139 244.89383 C 60.40272 244.74717 59.39073 244.67383 58.30539 244.67383 Z" fill="#77c167"/>
        </g>
        <g id="Graphic_23">
          <path d="M 82.66539 241.59383 L 82.66539 270.10583 L 94.80939 270.10583 L 94.80939 273.18583 L 79.49739 273.18583 L 79.49739 241.59383 Z" fill="#77c167"/>
        </g>
        <g id="Graphic_24">
          <path d="M 115.95739 241.59383 L 116.70539 241.59383 L 131.3574 273.18583 L 128.0574 273.18583 L 123.2174 262.80183 L 109.35739 262.80183 L 104.51739 273.18583 L 101.21739 273.18583 Z M 110.76539 259.80983 L 121.8094 259.80983 L 116.30939 247.97383 Z" fill="#77c167"/>
        </g>
        <g id="Graphic_25">
          <path d="M 137.57075 273.18583 L 137.57075 241.59383 L 138.23075 241.59383 L 159.17475 265.79383 L 159.17475 241.59383 L 162.34275 241.59383 L 162.34275 273.18583 L 161.63875 273.18583 L 140.73875 249.29383 L 140.73875 273.18583 Z" fill="#005caa"/>
        </g>
        <g id="Graphic_26">
          <path d="M 172.1201 273.18583 L 172.1201 241.59383 L 190.1601 241.59383 L 190.1601 244.62983 L 175.2881 244.62983 L 175.2881 254.61783 L 190.1601 254.61783 L 190.1601 257.60983 L 175.2881 257.60983 L 175.2881 270.10583 L 190.1601 270.10583 L 190.1601 273.18583 Z" fill="#005caa"/>
        </g>
        <g id="Graphic_27">
          <path d="M 200.37075 241.59383 L 217.70675 241.59383 L 217.70675 244.67383 L 210.66675 244.67383 L 210.66675 273.18583 L 207.49875 273.18583 L 207.49875 244.67383 L 200.37075 244.67383 Z" fill="#005caa"/>
        </g>
        <g id="Graphic_28">
          <path d="M 230.40675 241.59383 L 230.40675 270.10583 L 242.55075 270.10583 L 242.55075 273.18583 L 227.23875 273.18583 L 227.23875 241.59383 Z" fill="#77c167"/>
        </g>
        <g id="Graphic_29">
          <path d="M 263.69875 241.59383 L 264.44675 241.59383 L 279.09875 273.18583 L 275.79875 273.18583 L 270.95875 262.80183 L 257.09875 262.80183 L 252.25875 273.18583 L 248.95875 273.18583 Z M 258.50675 259.80983 L 269.55075 259.80983 L 264.05075 247.97383 Z" fill="#77c167"/>
        </g>
        <g id="Graphic_30">
          <path d="M 285.3121 241.59383 L 292.0001 241.59383 C 293.6721 241.59383 295.11676 241.7845 296.3341 242.16583 C 297.55144 242.54717 298.5561 243.0825 299.3481 243.77183 C 300.1401 244.46117 300.72677 245.27516 301.1081 246.21383 C 301.48944 247.1525 301.6801 248.17916 301.6801 249.29383 C 301.6801 250.70184 301.3501 251.9705 300.6901 253.09983 C 300.0301 254.22917 299.01078 255.17516 297.6321 255.93783 C 302.06146 257.43384 304.2761 260.1618 304.2761 264.12183 C 304.2761 265.29517 304.04877 266.43183 303.5941 267.53183 C 303.13943 268.63184 302.47944 269.59983 301.6141 270.43583 C 300.74876 271.27184 299.6781 271.93917 298.4021 272.43783 C 297.1261 272.9365 295.6521 273.18583 293.9801 273.18583 L 285.3121 273.18583 Z M 288.4801 257.91783 L 288.4801 270.10583 L 293.3641 270.10583 C 294.71344 270.10583 295.86476 269.93717 296.8181 269.59983 C 297.77144 269.2625 298.5561 268.8225 299.1721 268.27983 C 299.7881 267.73717 300.24277 267.1065 300.5361 266.38783 C 300.82944 265.66916 300.9761 264.9285 300.9761 264.16583 C 300.9761 262.17116 300.17678 260.63117 298.5781 259.54583 C 296.97943 258.4605 294.71345 257.91783 291.7801 257.91783 Z M 288.4801 244.67383 L 288.4801 254.83783 L 290.5921 254.83783 C 292.93878 254.83783 294.82343 254.4125 296.2461 253.56183 C 297.66878 252.71116 298.3801 251.2885 298.3801 249.29383 C 298.3801 247.88583 297.88144 246.76384 296.8841 245.92783 C 295.88676 245.09183 294.4641 244.67383 292.6161 244.67383 Z" fill="#77c167"/>
        </g>
      </g>
    </g>
  </g>
</svg>
