<?xml version="1.0" encoding="UTF-8" standalone="no"?>
<!DOCTYPE svg PUBLIC "-//W3C//DTD SVG 1.1//EN" "http://www.w3.org/Graphics/SVG/1.1/DTD/svg11.dtd">
<svg xmlns="http://www.w3.org/2000/svg" version="1.1" xmlns:dc="http://purl.org/dc/elements/1.1/" xmlns:xl="http://www.w3.org/1999/xlink" viewBox="43 97 299 177" width="299" height="177">
  <defs>
    <linearGradient x1="0" x2="1" id="Gradient" gradientUnits="userSpaceOnUse">
      <stop offset="0" stop-color="#77c167"/>
      <stop offset="1" stop-color="white"/>
    </linearGradient>
    <linearGradient id="Obj_Gradient" xl:href="#Gradient" gradientTransform="translate(272.126 136.43539) rotate(180) scale(97.56925)"/>
    <linearGradient id="Obj_Gradient_2" xl:href="#Gradient" gradientTransform="translate(280.62993 173.86338) rotate(180) scale(121.99932)"/>
    <linearGradient id="Obj_Gradient_3" xl:href="#Gradient" gradientTransform="translate(217.65234 155.22454) rotate(180) scale(124.10903)"/>
    <linearGradient id="Obj_Gradient_4" xl:href="#Gradient" gradientTransform="translate(189.43327 192.39848) rotate(180) scale(70.378145)"/>
    <linearGradient id="Obj_Gradient_5" xl:href="#Gradient" gradientTransform="translate(202.3405 118.13475) rotate(180) scale(88.95466)"/>
  </defs>
  <metadata> Produced by OmniGraffle 7.18.6\n2025-04-02 14:10:35 +0000</metadata>
  <g id="Logo_v3_vertical" fill="none" stroke="none" stroke-opacity="1" fill-opacity="1" stroke-dasharray="none">
    <title>Logo v3 vertical</title>
    <g id="Logo_v3_vertical_Layer_1">
      <title>Layer 1</title>
      <g id="Group_36">
        <g id="Graphic_14">
          <title>Rectangle</title>
          <rect x="174.55674" y="134.95104" width="97.56925" height="2.9686864" fill="url(#Obj_Gradient)"/>
        </g>
        <g id="Graphic_13">
          <rect x="158.6306" y="172.37904" width="121.99932" height="2.9686864" fill="url(#Obj_Gradient_2)"/>
        </g>
        <g id="Graphic_12">
          <rect x="93.54331" y="153.7402" width="124.10903" height="2.9686864" fill="url(#Obj_Gradient_3)"/>
        </g>
        <g id="Graphic_11">
          <rect x="119.05512" y="190.91414" width="70.378145" height="2.9686864" fill="url(#Obj_Gradient_4)"/>
        </g>
        <g id="Graphic_10">
          <title>Rectangle</title>
          <rect x="113.38583" y="116.65041" width="88.95466" height="2.9686864" fill="url(#Obj_Gradient_5)"/>
        </g>
        <g id="Graphic_9">
          <title>Circle</title>
          <circle cx="189.66995" cy="158.48885" r="56.6930036451332" stroke="#005caa" stroke-linecap="round" stroke-linejoin="round" stroke-width="9"/>
        </g>
        <g id="Graphic_8">
          <title>Circle</title>
          <circle cx="193.76905" cy="192.39848" r="5.90315903496199" fill="#005caa"/>
        </g>
        <g id="Graphic_7">
          <title>Circle</title>
          <circle cx="158.33695" cy="173.8795" r="5.90741087101372" fill="#005caa"/>
        </g>
        <g id="Graphic_6">
          <title>Circle</title>
          <circle cx="224.9734" cy="154.89842" r="8.2417453170529" fill="#005caa"/>
        </g>
        <g id="Graphic_5">
          <title>Circle</title>
          <circle cx="113.55181" cy="155.53283" r="4.4263062116096" fill="#005caa"/>
        </g>
        <g id="Graphic_4">
          <title>Circle</title>
          <circle cx="260.94897" cy="136.43539" r="4.01102989975987" fill="#005caa"/>
        </g>
        <g id="Graphic_3">
          <title>Circle</title>
          <circle cx="174.70198" cy="136.43539" r="4.95071650208541" fill="#005caa"/>
        </g>
        <g id="Graphic_2">
          <title>Circle</title>
          <circle cx="206.77678" cy="118.13475" r="5.90315903496198" fill="#005caa"/>
        </g>
      </g>
      <g id="Group_35">
        <g id="Graphic_22">
          <path d="M 43.8801 241.59383 L 52.4161 241.59383 C 53.970776 241.59383 55.430095 241.7185 56.7941 241.96783 C 58.15811 242.21717 59.35343 242.65716 60.3801 243.28783 C 61.40677 243.9185 62.21343 244.7765 62.8001 245.86183 C 63.38677 246.94717 63.6801 248.32583 63.6801 249.99783 C 63.6801 251.7285 63.36477 253.14383 62.7341 254.24383 C 62.10343 255.34384 61.25277 256.20916 60.1821 256.83983 C 59.11143 257.4705 57.87944 257.90317 56.4861 258.13783 C 55.09276 258.3725 53.64811 258.48983 52.1521 258.48983 L 47.0481 258.48983 L 47.0481 273.18583 L 43.8801 273.18583 Z M 47.0481 244.67383 L 47.0481 255.40983 L 52.2841 255.40983 C 53.45744 255.40983 54.54276 255.3365 55.5401 255.18983 C 56.53744 255.04317 57.39543 254.7645 58.1141 254.35383 C 58.83277 253.94317 59.3901 253.38584 59.7861 252.68183 C 60.1821 251.97783 60.3801 251.08317 60.3801 249.99783 C 60.3801 248.9125 60.1821 248.02517 59.7861 247.33583 C 59.3901 246.6465 58.840105 246.10384 58.1361 245.70783 C 57.4321 245.31183 56.61077 245.0405 55.6721 244.89383 C 54.73343 244.74717 53.72144 244.67383 52.6361 244.67383 Z" fill="#77c167"/>
        </g>
        <g id="Graphic_23">
          <path d="M 76.9961 241.59383 L 76.9961 270.10583 L 89.1401 270.10583 L 89.1401 273.18583 L 73.8281 273.18583 L 73.8281 241.59383 Z" fill="#77c167"/>
        </g>
        <g id="Graphic_24">
          <path d="M 110.2881 241.59383 L 111.0361 241.59383 L 125.6881 273.18583 L 122.3881 273.18583 L 117.5481 262.80183 L 103.6881 262.80183 L 98.8481 273.18583 L 95.5481 273.18583 Z M 105.0961 259.80983 L 116.1401 259.80983 L 110.6401 247.97383 Z" fill="#77c167"/>
        </g>
        <g id="Graphic_25">
          <path d="M 131.90146 273.18583 L 131.90146 241.59383 L 132.56146 241.59383 L 153.50546 265.79383 L 153.50546 241.59383 L 156.67346 241.59383 L 156.67346 273.18583 L 155.96946 273.18583 L 135.06946 249.29383 L 135.06946 273.18583 Z" fill="#005caa"/>
        </g>
        <g id="Graphic_26">
          <path d="M 166.45081 273.18583 L 166.45081 241.59383 L 184.4908 241.59383 L 184.4908 244.62983 L 169.6188 244.62983 L 169.6188 254.61783 L 184.4908 254.61783 L 184.4908 257.60983 L 169.6188 257.60983 L 169.6188 270.10583 L 184.4908 270.10583 L 184.4908 273.18583 Z" fill="#005caa"/>
        </g>
        <g id="Graphic_27">
          <path d="M 194.70146 241.59383 L 212.03746 241.59383 L 212.03746 244.67383 L 204.99746 244.67383 L 204.99746 273.18583 L 201.82946 273.18583 L 201.82946 244.67383 L 194.70146 244.67383 Z" fill="#005caa"/>
        </g>
        <g id="Graphic_28">
          <path d="M 224.73746 241.59383 L 224.73746 270.10583 L 236.88146 270.10583 L 236.88146 273.18583 L 221.56946 273.18583 L 221.56946 241.59383 Z" fill="#77c167"/>
        </g>
        <g id="Graphic_29">
          <path d="M 258.02946 241.59383 L 258.77746 241.59383 L 273.42946 273.18583 L 270.12946 273.18583 L 265.28946 262.80183 L 251.42946 262.80183 L 246.58946 273.18583 L 243.28946 273.18583 Z M 252.83746 259.80983 L 263.88146 259.80983 L 258.38146 247.97383 Z" fill="#77c167"/>
        </g>
        <g id="Graphic_30">
          <path d="M 279.6428 241.59383 L 286.3308 241.59383 C 288.00282 241.59383 289.44747 241.7845 290.6648 242.16583 C 291.88215 242.54717 292.8868 243.0825 293.6788 243.77183 C 294.4708 244.46117 295.05747 245.27516 295.4388 246.21383 C 295.82015 247.1525 296.0108 248.17916 296.0108 249.29383 C 296.0108 250.70184 295.6808 251.9705 295.0208 253.09983 C 294.3608 254.22917 293.3415 255.17516 291.9628 255.93783 C 296.39217 257.43384 298.6068 260.1618 298.6068 264.12183 C 298.6068 265.29517 298.37948 266.43183 297.9248 267.53183 C 297.47014 268.63184 296.81015 269.59983 295.9448 270.43583 C 295.07947 271.27184 294.0088 271.93917 292.7328 272.43783 C 291.4568 272.9365 289.98282 273.18583 288.3108 273.18583 L 279.6428 273.18583 Z M 282.8108 257.91783 L 282.8108 270.10583 L 287.6948 270.10583 C 289.04415 270.10583 290.19547 269.93717 291.1488 269.59983 C 292.10215 269.2625 292.8868 268.8225 293.5028 268.27983 C 294.1188 267.73717 294.57348 267.1065 294.8668 266.38783 C 295.16014 265.66916 295.3068 264.9285 295.3068 264.16583 C 295.3068 262.17116 294.5075 260.63117 292.9088 259.54583 C 291.31014 258.4605 289.04416 257.91783 286.1108 257.91783 Z M 282.8108 244.67383 L 282.8108 254.83783 L 284.9228 254.83783 C 287.2695 254.83783 289.15414 254.4125 290.5768 253.56183 C 291.9995 252.71116 292.7108 251.2885 292.7108 249.29383 C 292.7108 247.88583 292.21215 246.76384 291.2148 245.92783 C 290.21747 245.09183 288.79482 244.67383 286.9468 244.67383 Z" fill="#77c167"/>
        </g>
        <g id="Group_34">
          <title>V3</title>
          <g id="Graphic_32">
            <path d="M 310.05672 255.40906 L 312.00672 255.40906 L 317.95672 269.28406 L 324.00672 255.40906 L 325.95672 255.40906 L 318.15672 273.35906 L 317.75672 273.35906 Z" fill="#005caa"/>
          </g>
          <g id="Graphic_33">
            <path d="M 328.70672 269.65906 L 330.30672 268.90906 C 330.69006 269.85907 331.2317 270.63823 331.93172 271.24656 C 332.63172 271.8549 333.5817 272.15906 334.78172 272.15906 C 335.48172 272.15906 336.09005 272.05073 336.60672 271.83406 C 337.1234 271.6174 337.55255 271.3299 337.89422 270.97156 C 338.2359 270.61323 338.49005 270.2049 338.65672 269.74656 C 338.8234 269.28823 338.90672 268.8174 338.90672 268.33406 C 338.90672 267.0674 338.45672 266.0799 337.55672 265.37156 C 336.6567 264.66323 335.35673 264.30906 333.65672 264.30906 L 333.65672 262.65906 C 335.09006 262.57573 336.14005 262.24657 336.80672 261.67156 C 337.4734 261.09656 337.80672 260.35907 337.80672 259.45906 C 337.80672 259.07573 337.7359 258.70906 337.59422 258.35906 C 337.45255 258.00906 337.24422 257.7049 336.96922 257.44656 C 336.6942 257.18823 336.3609 256.98406 335.96922 256.83406 C 335.57755 256.68406 335.13172 256.60906 334.63172 256.60906 C 333.7484 256.60906 332.99006 256.86323 332.35672 257.37156 C 331.7234 257.8799 331.21506 258.5924 330.83172 259.50906 L 329.20672 258.83406 C 329.74006 257.5674 330.4984 256.6049 331.48172 255.94656 C 332.46506 255.28823 333.5317 254.95906 334.68172 254.95906 C 335.4484 254.95906 336.14005 255.0799 336.75672 255.32156 C 337.3734 255.56323 337.8984 255.88823 338.33172 256.29656 C 338.76506 256.7049 339.0984 257.18406 339.33172 257.73406 C 339.56505 258.28407 339.68172 258.85906 339.68172 259.45906 C 339.68172 260.35907 339.4484 261.13823 338.98172 261.79656 C 338.51505 262.4549 337.8734 262.95906 337.05672 263.30906 C 339.45673 264.17573 340.6567 265.80905 340.6567 268.20906 C 340.6567 268.90907 340.53172 269.5924 340.28172 270.25906 C 340.0317 270.92573 339.65672 271.52156 339.15672 272.04656 C 338.6567 272.57157 338.03172 272.99656 337.28172 273.32156 C 336.5317 273.64656 335.65673 273.80906 334.65672 273.80906 C 333.9067 273.80906 333.22756 273.70906 332.61922 273.50906 C 332.0109 273.30906 331.4609 273.02573 330.96922 272.65906 C 330.47755 272.2924 330.04422 271.8549 329.66922 271.34656 C 329.2942 270.83823 328.9734 270.27573 328.70672 269.65906 Z" fill="#005caa"/>
          </g>
        </g>
      </g>
    </g>
  </g>
</svg>
