<?xml version="1.0" encoding="UTF-8" standalone="no"?>
<!DOCTYPE svg PUBLIC "-//W3C//DTD SVG 1.1//EN" "http://www.w3.org/Graphics/SVG/1.1/DTD/svg11.dtd">
<svg xmlns="http://www.w3.org/2000/svg" xmlns:dc="http://purl.org/dc/elements/1.1/" version="1.1" xmlns:xl="http://www.w3.org/1999/xlink" viewBox="56 97 296 179" width="296" height="179">
  <defs>
    <linearGradient x1="0" x2="1" id="Gradient" gradientUnits="userSpaceOnUse">
      <stop offset="0" stop-color="#77c167"/>
      <stop offset="1" stop-color="white"/>
    </linearGradient>
    <linearGradient id="Obj_Gradient" xl:href="#Gradient" gradientTransform="translate(283.52148 136.43539) rotate(180) scale(97.56925)"/>
    <linearGradient id="Obj_Gradient_2" xl:href="#Gradient" gradientTransform="translate(292.02542 173.86338) rotate(180) scale(121.99932)"/>
    <linearGradient id="Obj_Gradient_3" xl:href="#Gradient" gradientTransform="translate(229.04783 155.22454) rotate(180) scale(124.10903)"/>
    <linearGradient id="Obj_Gradient_4" xl:href="#Gradient" gradientTransform="translate(200.82876 192.39848) rotate(180) scale(70.378145)"/>
    <linearGradient id="Obj_Gradient_5" xl:href="#Gradient" gradientTransform="translate(213.73598 118.13475) rotate(180) scale(88.95466)"/>
  </defs>
  <metadata> Produced by OmniGraffle 7.18.6\n2025-04-02 14:37:49 +0000</metadata>
  <g id="Logo_v3_vertical" fill="none" fill-opacity="1" stroke-dasharray="none" stroke-opacity="1" stroke="none">
    <title>Logo v3 vertical</title>
    <g id="Logo_v3_vertical_Layer_1">
      <title>Layer 1</title>
      <g id="Group_36">
        <g id="Graphic_14">
          <title>Rectangle</title>
          <rect x="185.95223" y="134.95104" width="97.56925" height="2.9686864" fill="url(#Obj_Gradient)"/>
        </g>
        <g id="Graphic_13">
          <rect x="170.0261" y="172.37904" width="121.99932" height="2.9686864" fill="url(#Obj_Gradient_2)"/>
        </g>
        <g id="Graphic_12">
          <rect x="104.9388" y="153.7402" width="124.10903" height="2.9686864" fill="url(#Obj_Gradient_3)"/>
        </g>
        <g id="Graphic_11">
          <rect x="130.45061" y="190.91414" width="70.378145" height="2.9686864" fill="url(#Obj_Gradient_4)"/>
        </g>
        <g id="Graphic_10">
          <title>Rectangle</title>
          <rect x="124.78132" y="116.65041" width="88.95466" height="2.9686864" fill="url(#Obj_Gradient_5)"/>
        </g>
        <g id="Graphic_9">
          <title>Circle</title>
          <circle cx="201.06545" cy="158.48885" r="56.6930036451332" stroke="#005caa" stroke-linecap="round" stroke-linejoin="round" stroke-width="9"/>
        </g>
        <g id="Graphic_8">
          <title>Circle</title>
          <circle cx="205.16454" cy="192.39848" r="5.90315903496199" fill="#005caa"/>
        </g>
        <g id="Graphic_7">
          <title>Circle</title>
          <circle cx="169.73244" cy="173.8795" r="5.90741087101371" fill="#005caa"/>
        </g>
        <g id="Graphic_6">
          <title>Circle</title>
          <circle cx="236.3689" cy="154.89842" r="8.2417453170529" fill="#005caa"/>
        </g>
        <g id="Graphic_5">
          <title>Circle</title>
          <circle cx="124.9473" cy="155.53283" r="4.42630621160959" fill="#005caa"/>
        </g>
        <g id="Graphic_4">
          <title>Circle</title>
          <circle cx="272.34446" cy="136.43539" r="4.01102989975985" fill="#005caa"/>
        </g>
        <g id="Graphic_3">
          <title>Circle</title>
          <circle cx="186.09747" cy="136.43539" r="4.95071650208542" fill="#005caa"/>
        </g>
        <g id="Graphic_2">
          <title>Circle</title>
          <circle cx="218.17227" cy="118.13475" r="5.90315903496198" fill="#005caa"/>
        </g>
      </g>
      <g id="Group_60">
        <g id="Group_50">
          <g id="Graphic_59">
            <path d="M 56.692915 243.77953 L 65.228915 243.77953 C 66.78359 243.77953 68.24291 243.9042 69.606915 244.15353 C 70.97092 244.40287 72.16624 244.84286 73.192915 245.47353 C 74.21959 246.1042 75.026245 246.9622 75.612915 248.04753 C 76.199585 249.13287 76.492915 250.51153 76.492915 252.18353 C 76.492915 253.9142 76.177585 255.32953 75.546915 256.42953 C 74.916245 257.52954 74.06559 258.39486 72.994915 259.02553 C 71.92424 259.6562 70.692255 260.08887 69.298915 260.32353 C 67.905575 260.5582 66.46092 260.67553 64.964915 260.67553 L 59.860915 260.67553 L 59.860915 275.37153 L 56.692915 275.37153 Z M 59.860915 246.85953 L 59.860915 257.59553 L 65.096915 257.59553 C 66.270254 257.59553 67.35558 257.5222 68.352915 257.37553 C 69.35025 257.22887 70.208245 256.9502 70.926915 256.53953 C 71.645585 256.12887 72.20291 255.57154 72.598915 254.86753 C 72.99492 254.16353 73.192915 253.26887 73.192915 252.18353 C 73.192915 251.0982 72.99492 250.21087 72.598915 249.52153 C 72.20291 248.8322 71.65292 248.28954 70.948915 247.89353 C 70.24491 247.49753 69.42359 247.2262 68.484915 247.07953 C 67.54624 246.93287 66.53425 246.85953 65.448915 246.85953 Z" fill="#77c167"/>
          </g>
          <g id="Graphic_58">
            <path d="M 89.80891 243.77953 L 89.80891 272.29153 L 101.95291 272.29153 L 101.95291 275.37153 L 86.64091 275.37153 L 86.64091 243.77953 Z" fill="#77c167"/>
          </g>
          <g id="Graphic_57">
            <path d="M 123.10091 243.77953 L 123.84891 243.77953 L 138.50091 275.37153 L 135.20091 275.37153 L 130.36091 264.98753 L 116.50091 264.98753 L 111.66091 275.37153 L 108.36091 275.37153 Z M 117.90891 261.99553 L 128.95291 261.99553 L 123.45291 250.15953 Z" fill="#77c167"/>
          </g>
          <g id="Graphic_56">
            <path d="M 144.71427 275.37153 L 144.71427 243.77953 L 145.37427 243.77953 L 166.31827 267.97953 L 166.31827 243.77953 L 169.48627 243.77953 L 169.48627 275.37153 L 168.78227 275.37153 L 147.88227 251.47953 L 147.88227 275.37153 Z" fill="#005caa"/>
          </g>
          <g id="Graphic_55">
            <path d="M 179.26362 275.37153 L 179.26362 243.77953 L 197.30362 243.77953 L 197.30362 246.81553 L 182.43162 246.81553 L 182.43162 256.80353 L 197.30362 256.80353 L 197.30362 259.79553 L 182.43162 259.79553 L 182.43162 272.29153 L 197.30362 272.29153 L 197.30362 275.37153 Z" fill="#005caa"/>
          </g>
          <g id="Graphic_54">
            <path d="M 204.67962 243.77953 L 222.01562 243.77953 L 222.01562 246.85953 L 214.97562 246.85953 L 214.97562 275.37153 L 211.80762 275.37153 L 211.80762 246.85953 L 204.67962 246.85953 Z" fill="#005caa"/>
          </g>
          <g id="Graphic_53">
            <path d="M 234.71562 243.77953 L 234.71562 272.29153 L 246.85962 272.29153 L 246.85962 275.37153 L 231.54762 275.37153 L 231.54762 243.77953 Z" fill="#77c167"/>
          </g>
          <g id="Graphic_52">
            <path d="M 268.00762 243.77953 L 268.75562 243.77953 L 283.40762 275.37153 L 280.10762 275.37153 L 275.26762 264.98753 L 261.40762 264.98753 L 256.56762 275.37153 L 253.26762 275.37153 Z M 262.81562 261.99553 L 273.85962 261.99553 L 268.35962 250.15953 Z" fill="#77c167"/>
          </g>
          <g id="Graphic_51">
            <path d="M 289.62098 243.77953 L 296.30898 243.77953 C 297.981 243.77953 299.42564 243.9702 300.64298 244.35153 C 301.8603 244.73287 302.86497 245.2682 303.65698 245.95753 C 304.44898 246.64687 305.03564 247.46086 305.41698 248.39953 C 305.7983 249.3382 305.98898 250.36486 305.98898 251.47953 C 305.98898 252.88754 305.65898 254.1562 304.99898 255.28553 C 304.33897 256.41487 303.31965 257.36086 301.94098 258.12353 C 306.37033 259.61954 308.58498 262.3475 308.58498 266.30753 C 308.58498 267.48087 308.35765 268.61753 307.90298 269.71753 C 307.4483 270.81754 306.7883 271.78553 305.92298 272.62153 C 305.05764 273.45754 303.987 274.12487 302.71098 274.62353 C 301.43497 275.1222 299.961 275.37153 298.28898 275.37153 L 289.62098 275.37153 Z M 292.78898 260.10353 L 292.78898 272.29153 L 297.67298 272.29153 C 299.0223 272.29153 300.17364 272.12287 301.12698 271.78553 C 302.0803 271.4482 302.86497 271.0082 303.48098 270.46553 C 304.09698 269.92286 304.55164 269.2922 304.84498 268.57353 C 305.1383 267.85486 305.28498 267.1142 305.28498 266.35153 C 305.28498 264.35686 304.48565 262.81687 302.88698 261.73153 C 301.2883 260.6462 299.02233 260.10353 296.08898 260.10353 Z M 292.78898 246.85953 L 292.78898 257.02353 L 294.90098 257.02353 C 297.24766 257.02353 299.1323 256.5982 300.55498 255.74753 C 301.97765 254.89686 302.68898 253.4742 302.68898 251.47953 C 302.68898 250.07153 302.1903 248.94954 301.19298 248.11353 C 300.19564 247.27753 298.773 246.85953 296.92498 246.85953 Z" fill="#77c167"/>
          </g>
        </g>
        <g id="Group_47">
          <title>V3</title>
          <g id="Graphic_49">
            <path d="M 320.0349 257.59476 L 321.9849 257.59476 L 327.9349 271.46976 L 333.9849 257.59476 L 335.9349 257.59476 L 328.1349 275.54476 L 327.7349 275.54476 Z" fill="#005caa"/>
          </g>
          <g id="Graphic_48">
            <path d="M 338.6849 271.84476 L 340.2849 271.09476 C 340.66822 272.04477 341.2099 272.82393 341.9099 273.43226 C 342.6099 274.0406 343.5599 274.34476 344.7599 274.34476 C 345.4599 274.34476 346.0682 274.23643 346.5849 274.01976 C 347.10156 273.8031 347.5307 273.5156 347.8724 273.15726 C 348.21406 272.79893 348.4682 272.3906 348.6349 271.93226 C 348.80156 271.47393 348.8849 271.0031 348.8849 270.51976 C 348.8849 269.2531 348.4349 268.2656 347.5349 267.55726 C 346.6349 266.84893 345.3349 266.49476 343.6349 266.49476 L 343.6349 264.84476 C 345.06823 264.76143 346.1182 264.43227 346.7849 263.85726 C 347.45156 263.28226 347.7849 262.54477 347.7849 261.64476 C 347.7849 261.26143 347.71406 260.89476 347.5724 260.54476 C 347.4307 260.19476 347.2224 259.8906 346.9474 259.63226 C 346.6724 259.37393 346.33906 259.16976 345.9474 259.01976 C 345.5557 258.86976 345.1099 258.79476 344.6099 258.79476 C 343.72655 258.79476 342.96822 259.04893 342.3349 259.55726 C 341.70155 260.0656 341.19322 260.7781 340.8099 261.69476 L 339.1849 261.01976 C 339.71822 259.7531 340.47655 258.7906 341.4599 258.13226 C 342.44323 257.47393 343.5099 257.14476 344.6599 257.14476 C 345.42656 257.14476 346.1182 257.2656 346.7349 257.50726 C 347.35156 257.74893 347.87655 258.07393 348.3099 258.48226 C 348.74322 258.8906 349.07655 259.36976 349.3099 259.91976 C 349.54322 260.46977 349.6599 261.04476 349.6599 261.64476 C 349.6599 262.54477 349.42656 263.32393 348.9599 263.98226 C 348.4932 264.6406 347.85156 265.14476 347.0349 265.49476 C 349.4349 266.36143 350.6349 267.99475 350.6349 270.39476 C 350.6349 271.09477 350.5099 271.7781 350.2599 272.44476 C 350.0099 273.11143 349.6349 273.70726 349.1349 274.23226 C 348.6349 274.75727 348.0099 275.18226 347.2599 275.50726 C 346.5099 275.83226 345.6349 275.99476 344.6349 275.99476 C 343.8849 275.99476 343.20572 275.89476 342.5974 275.69476 C 341.98905 275.49476 341.43906 275.21143 340.9474 274.84476 C 340.4557 274.4781 340.0224 274.0406 339.6474 273.53226 C 339.2724 273.02393 338.95156 272.46143 338.6849 271.84476 Z" fill="#005caa"/>
          </g>
        </g>
      </g>
    </g>
  </g>
</svg>
