<?xml version="1.0" encoding="UTF-8" standalone="no"?>
<!DOCTYPE svg PUBLIC "-//W3C//DTD SVG 1.1//EN" "http://www.w3.org/Graphics/SVG/1.1/DTD/svg11.dtd">
<svg xmlns:dc="http://purl.org/dc/elements/1.1/" version="1.1" xmlns="http://www.w3.org/2000/svg" xmlns:xl="http://www.w3.org/1999/xlink" viewBox="85 97 459 123" width="459" height="123">
  <defs>
    <linearGradient x1="0" x2="1" id="Gradient" gradientUnits="userSpaceOnUse">
      <stop offset="0" stop-color="#77c167"/>
      <stop offset="1" stop-color="white"/>
    </linearGradient>
    <linearGradient id="Obj_Gradient" xl:href="#Gradient" gradientTransform="translate(263.62205 136.43539) rotate(180) scale(97.56925)"/>
    <linearGradient id="Obj_Gradient_2" xl:href="#Gradient" gradientTransform="translate(272.126 173.86338) rotate(180) scale(121.99932)"/>
    <linearGradient id="Obj_Gradient_3" xl:href="#Gradient" gradientTransform="translate(209.1484 155.22454) rotate(180) scale(124.10903)"/>
    <linearGradient id="Obj_Gradient_4" xl:href="#Gradient" gradientTransform="translate(180.92933 192.39848) rotate(180) scale(70.378145)"/>
    <linearGradient id="Obj_Gradient_5" xl:href="#Gradient" gradientTransform="translate(193.83656 118.13475) rotate(180) scale(88.95466)"/>
  </defs>
  <metadata> Produced by OmniGraffle 7.18.6\n2025-04-04 10:00:55 +0000</metadata>
  <g id="Logo_v3_horizontal_alt" fill="none" stroke="none" fill-opacity="1" stroke-opacity="1" stroke-dasharray="none">
    <title>Logo v3 horizontal alt</title>
    <g id="Logo_v3_horizontal_alt_Layer_1">
      <title>Layer 1</title>
      <g id="Group_36">
        <g id="Graphic_14">
          <title>Rectangle</title>
          <rect x="166.0528" y="134.95104" width="97.56925" height="2.9686864" fill="url(#Obj_Gradient)"/>
        </g>
        <g id="Graphic_13">
          <rect x="150.12667" y="172.37904" width="121.99932" height="2.9686864" fill="url(#Obj_Gradient_2)"/>
        </g>
        <g id="Graphic_12">
          <rect x="85.03937" y="153.7402" width="124.10903" height="2.9686864" fill="url(#Obj_Gradient_3)"/>
        </g>
        <g id="Graphic_11">
          <rect x="110.55118" y="190.91414" width="70.378145" height="2.9686864" fill="url(#Obj_Gradient_4)"/>
        </g>
        <g id="Graphic_10">
          <title>Rectangle</title>
          <rect x="104.88189" y="116.65041" width="88.95466" height="2.9686864" fill="url(#Obj_Gradient_5)"/>
        </g>
        <g id="Graphic_9">
          <title>Circle</title>
          <circle cx="181.16602" cy="158.48885" r="56.6930036451332" stroke="#005caa" stroke-linecap="round" stroke-linejoin="round" stroke-width="9"/>
        </g>
        <g id="Graphic_8">
          <title>Circle</title>
          <circle cx="185.2651" cy="192.39848" r="5.90315903496199" fill="#005caa"/>
        </g>
        <g id="Graphic_7">
          <title>Circle</title>
          <circle cx="149.83302" cy="173.8795" r="5.90741087101372" fill="#005caa"/>
        </g>
        <g id="Graphic_6">
          <title>Circle</title>
          <circle cx="216.46947" cy="154.89842" r="8.24174531705291" fill="#005caa"/>
        </g>
        <g id="Graphic_5">
          <title>Circle</title>
          <circle cx="105.04788" cy="155.53283" r="4.4263062116096" fill="#005caa"/>
        </g>
        <g id="Graphic_4">
          <title>Circle</title>
          <circle cx="252.44503" cy="136.43539" r="4.01102989975986" fill="#005caa"/>
        </g>
        <g id="Graphic_3">
          <title>Circle</title>
          <circle cx="166.19804" cy="136.43539" r="4.95071650208541" fill="#005caa"/>
        </g>
        <g id="Graphic_2">
          <title>Circle</title>
          <circle cx="198.27284" cy="118.13475" r="5.90315903496199" fill="#005caa"/>
        </g>
      </g>
      <g id="Group_38">
        <g id="Group_42">
          <g id="Graphic_51">
            <path d="M 289.13387 138.89764 L 297.66987 138.89764 C 299.22454 138.89764 300.68386 139.0223 302.04787 139.27164 C 303.41187 139.52098 304.6072 139.96097 305.63387 140.59164 C 306.66054 141.22231 307.4672 142.0803 308.05387 143.16564 C 308.64054 144.25098 308.93387 145.62963 308.93387 147.30164 C 308.93387 149.03232 308.61854 150.44764 307.98787 151.54764 C 307.3572 152.64765 306.50654 153.51297 305.43587 154.14364 C 304.3652 154.77431 303.1332 155.20697 301.73987 155.44164 C 300.34653 155.67631 298.90187 155.79364 297.40587 155.79364 L 292.30187 155.79364 L 292.30187 170.48964 L 289.13387 170.48964 Z M 292.30187 141.97764 L 292.30187 152.71364 L 297.53787 152.71364 C 298.7112 152.71364 299.79653 152.6403 300.79387 152.49364 C 301.7912 152.34697 302.6492 152.06831 303.36787 151.65764 C 304.08654 151.24697 304.64386 150.68965 305.03987 149.98564 C 305.43587 149.28164 305.63387 148.38698 305.63387 147.30164 C 305.63387 146.2163 305.43587 145.32898 305.03987 144.63964 C 304.64386 143.9503 304.09387 143.40764 303.38987 143.01164 C 302.68586 142.61564 301.86454 142.34431 300.92587 142.19764 C 299.9872 142.05097 298.9752 141.97764 297.88987 141.97764 Z" fill="#77c167"/>
          </g>
          <g id="Graphic_50">
            <path d="M 322.24987 138.89764 L 322.24987 167.40964 L 334.39387 167.40964 L 334.39387 170.48964 L 319.08187 170.48964 L 319.08187 138.89764 Z" fill="#77c167"/>
          </g>
          <g id="Graphic_49">
            <path d="M 355.54187 138.89764 L 356.28987 138.89764 L 370.94187 170.48964 L 367.64187 170.48964 L 362.80187 160.10564 L 348.94187 160.10564 L 344.10187 170.48964 L 340.80187 170.48964 Z M 350.34987 157.11364 L 361.39387 157.11364 L 355.89387 145.27764 Z" fill="#77c167"/>
          </g>
          <g id="Graphic_48">
            <path d="M 377.1552 170.48964 L 377.1552 138.89764 L 377.8152 138.89764 L 398.7592 163.09764 L 398.7592 138.89764 L 401.9272 138.89764 L 401.9272 170.48964 L 401.2232 170.48964 L 380.3232 146.59764 L 380.3232 170.48964 Z" fill="#005caa"/>
          </g>
          <g id="Graphic_47">
            <path d="M 411.70457 170.48964 L 411.70457 138.89764 L 429.7446 138.89764 L 429.7446 141.93364 L 414.87257 141.93364 L 414.87257 151.92164 L 429.7446 151.92164 L 429.7446 154.91364 L 414.87257 154.91364 L 414.87257 167.40964 L 429.7446 167.40964 L 429.7446 170.48964 Z" fill="#005caa"/>
          </g>
          <g id="Graphic_46">
            <path d="M 437.1206 138.89764 L 454.4566 138.89764 L 454.4566 141.97764 L 447.4166 141.97764 L 447.4166 170.48964 L 444.2486 170.48964 L 444.2486 141.97764 L 437.1206 141.97764 Z" fill="#005caa"/>
          </g>
          <g id="Graphic_45">
            <path d="M 467.1566 138.89764 L 467.1566 167.40964 L 479.3006 167.40964 L 479.3006 170.48964 L 463.9886 170.48964 L 463.9886 138.89764 Z" fill="#77c167"/>
          </g>
          <g id="Graphic_44">
            <path d="M 500.4486 138.89764 L 501.1966 138.89764 L 515.8486 170.48964 L 512.5486 170.48964 L 507.7086 160.10564 L 493.8486 160.10564 L 489.0086 170.48964 L 485.7086 170.48964 Z M 495.2566 157.11364 L 506.3006 157.11364 L 500.8006 145.27764 Z" fill="#77c167"/>
          </g>
          <g id="Graphic_43">
            <path d="M 522.0619 138.89764 L 528.7499 138.89764 C 530.42194 138.89764 531.8666 139.0883 533.0839 139.46964 C 534.3013 139.85098 535.3059 140.3863 536.0979 141.07564 C 536.88993 141.76498 537.4766 142.57897 537.8579 143.51764 C 538.23926 144.45631 538.4299 145.48297 538.4299 146.59764 C 538.4299 148.00565 538.09993 149.2743 537.4399 150.40364 C 536.7799 151.53298 535.7606 152.47897 534.3819 153.24164 C 538.8113 154.73765 541.0259 157.46562 541.0259 161.42564 C 541.0259 162.59898 540.7986 163.73564 540.3439 164.83564 C 539.88926 165.93565 539.22927 166.90364 538.3639 167.73964 C 537.4986 168.57565 536.42794 169.24297 535.1519 169.74164 C 533.8759 170.24031 532.40194 170.48964 530.7299 170.48964 L 522.0619 170.48964 Z M 525.2299 155.22164 L 525.2299 167.40964 L 530.1139 167.40964 C 531.4633 167.40964 532.6146 167.24098 533.5679 166.90364 C 534.52127 166.5663 535.3059 166.12631 535.9219 165.58364 C 536.53793 165.04097 536.9926 164.41031 537.2859 163.69164 C 537.57926 162.97297 537.7259 162.23231 537.7259 161.46964 C 537.7259 159.47497 536.9266 157.93498 535.3279 156.84964 C 533.72925 155.7643 531.4633 155.22164 528.5299 155.22164 Z M 525.2299 141.97764 L 525.2299 152.14164 L 527.3419 152.14164 C 529.6886 152.14164 531.57326 151.71631 532.9959 150.86564 C 534.4186 150.01497 535.1299 148.59232 535.1299 146.59764 C 535.1299 145.18963 534.63127 144.06765 533.6339 143.23164 C 532.6366 142.39564 531.21394 141.97764 529.3659 141.97764 Z" fill="#77c167"/>
          </g>
        </g>
        <g id="Group_39">
          <title>V3</title>
          <g id="Graphic_41">
            <path d="M 517.8901 178.92104 L 519.3563 178.92104 L 523.8301 189.35358 L 528.37906 178.92104 L 529.84525 178.92104 L 523.9805 192.41756 L 523.6797 192.41756 Z" fill="#005caa"/>
          </g>
          <g id="Graphic_40">
            <path d="M 531.91297 189.63554 L 533.116 189.07162 C 533.4042 189.78593 533.8115 190.37177 534.3378 190.82918 C 534.86416 191.28658 535.57845 191.51528 536.4807 191.51528 C 537.00706 191.51528 537.46446 191.43383 537.85294 191.27092 C 538.2414 191.108 538.5641 190.89184 538.821 190.6224 C 539.0779 190.35298 539.269 190.04596 539.3943 189.70134 C 539.51964 189.35672 539.5823 189.0027 539.5823 188.63928 C 539.5823 187.68688 539.24395 186.94439 538.56724 186.4118 C 537.89053 185.8792 536.9131 185.6129 535.63485 185.6129 L 535.63485 184.37228 C 536.7126 184.30962 537.50205 184.06212 538.0033 183.62978 C 538.5046 183.19744 538.7552 182.64292 538.7552 181.96621 C 538.7552 181.67798 538.70196 181.4023 538.59544 181.13913 C 538.4889 180.87596 538.3323 180.64726 538.1255 180.45302 C 537.9187 180.25878 537.6681 180.10527 537.3736 179.99249 C 537.0791 179.8797 536.7439 179.8233 536.36795 179.8233 C 535.7038 179.8233 535.1336 180.01441 534.6574 180.39663 C 534.1812 180.77885 533.799 181.31457 533.51074 182.0038 L 532.2889 181.49628 C 532.6899 180.54387 533.2601 179.82018 533.9995 179.32518 C 534.73884 178.83018 535.54086 178.58268 536.40554 178.58268 C 536.982 178.58268 537.50205 178.67354 537.9657 178.85524 C 538.4294 179.03695 538.82414 179.28132 539.14996 179.58834 C 539.4758 179.89537 539.7264 180.25565 539.90186 180.6692 C 540.0773 181.08274 540.165 181.51507 540.165 181.96621 C 540.165 182.64292 539.9896 183.22877 539.6387 183.72377 C 539.2878 184.21877 538.80534 184.59784 538.1913 184.861 C 539.99585 185.51265 540.8981 186.74074 540.8981 188.5453 C 540.8981 189.07163 540.8041 189.58542 540.61616 190.08668 C 540.4282 190.58795 540.1462 191.03595 539.7703 191.4307 C 539.3943 191.82544 538.9244 192.145 538.3605 192.38936 C 537.79655 192.63373 537.13864 192.7559 536.38674 192.7559 C 535.8228 192.7559 535.31216 192.68072 534.85476 192.53034 C 534.39735 192.37996 533.9838 192.16693 533.6141 191.89123 C 533.24445 191.61553 532.9186 191.28658 532.63667 190.90437 C 532.3547 190.52215 532.1135 190.09922 531.91297 189.63554 Z" fill="#005caa"/>
          </g>
        </g>
      </g>
    </g>
  </g>
</svg>
