<?xml version="1.0" encoding="UTF-8" standalone="no"?>
<!DOCTYPE svg PUBLIC "-//W3C//DTD SVG 1.1//EN" "http://www.w3.org/Graphics/SVG/1.1/DTD/svg11.dtd">
<svg xmlns="http://www.w3.org/2000/svg" version="1.1" xmlns:dc="http://purl.org/dc/elements/1.1/" xmlns:xl="http://www.w3.org/1999/xlink" viewBox="58 97 258 198" width="258" height="198">
  <defs>
    <linearGradient x1="0" x2="1" id="Gradient" gradientUnits="userSpaceOnUse">
      <stop offset="0" stop-color="#77c167"/>
      <stop offset="1" stop-color="white"/>
    </linearGradient>
    <linearGradient id="Obj_Gradient" xl:href="#Gradient" gradientTransform="translate(272.126 136.43539) rotate(180) scale(97.56925)"/>
    <linearGradient id="Obj_Gradient_2" xl:href="#Gradient" gradientTransform="translate(280.62993 173.86338) rotate(180) scale(121.99932)"/>
    <linearGradient id="Obj_Gradient_3" xl:href="#Gradient" gradientTransform="translate(217.65234 155.22454) rotate(180) scale(124.10903)"/>
    <linearGradient id="Obj_Gradient_4" xl:href="#Gradient" gradientTransform="translate(189.43327 192.39848) rotate(180) scale(70.378145)"/>
    <linearGradient id="Obj_Gradient_5" xl:href="#Gradient" gradientTransform="translate(202.3405 118.13475) rotate(180) scale(88.95466)"/>
  </defs>
  <metadata> Produced by OmniGraffle 7.18.6\n2025-04-02 14:10:35 +0000</metadata>
  <g id="Logo_v3_vertical_alt" fill="none" stroke="none" stroke-opacity="1" fill-opacity="1" stroke-dasharray="none">
    <title>Logo v3 vertical alt</title>
    <g id="Logo_v3_vertical_alt_Layer_1">
      <title>Layer 1</title>
      <g id="Group_36">
        <g id="Graphic_14">
          <title>Rectangle</title>
          <rect x="174.55674" y="134.95104" width="97.56925" height="2.9686864" fill="url(#Obj_Gradient)"/>
        </g>
        <g id="Graphic_13">
          <rect x="158.6306" y="172.37904" width="121.99932" height="2.9686864" fill="url(#Obj_Gradient_2)"/>
        </g>
        <g id="Graphic_12">
          <rect x="93.54331" y="153.7402" width="124.10903" height="2.9686864" fill="url(#Obj_Gradient_3)"/>
        </g>
        <g id="Graphic_11">
          <rect x="119.05512" y="190.91414" width="70.378145" height="2.9686864" fill="url(#Obj_Gradient_4)"/>
        </g>
        <g id="Graphic_10">
          <title>Rectangle</title>
          <rect x="113.38583" y="116.65041" width="88.95466" height="2.9686864" fill="url(#Obj_Gradient_5)"/>
        </g>
        <g id="Graphic_9">
          <title>Circle</title>
          <circle cx="189.66995" cy="158.48885" r="56.6930036451332" stroke="#005caa" stroke-linecap="round" stroke-linejoin="round" stroke-width="9"/>
        </g>
        <g id="Graphic_8">
          <title>Circle</title>
          <circle cx="193.76905" cy="192.39848" r="5.90315903496199" fill="#005caa"/>
        </g>
        <g id="Graphic_7">
          <title>Circle</title>
          <circle cx="158.33695" cy="173.8795" r="5.90741087101372" fill="#005caa"/>
        </g>
        <g id="Graphic_6">
          <title>Circle</title>
          <circle cx="224.9734" cy="154.89842" r="8.2417453170529" fill="#005caa"/>
        </g>
        <g id="Graphic_5">
          <title>Circle</title>
          <circle cx="113.55181" cy="155.53283" r="4.4263062116096" fill="#005caa"/>
        </g>
        <g id="Graphic_4">
          <title>Circle</title>
          <circle cx="260.94897" cy="136.43539" r="4.01102989975987" fill="#005caa"/>
        </g>
        <g id="Graphic_3">
          <title>Circle</title>
          <circle cx="174.70198" cy="136.43539" r="4.95071650208541" fill="#005caa"/>
        </g>
        <g id="Graphic_2">
          <title>Circle</title>
          <circle cx="206.77678" cy="118.13475" r="5.90315903496198" fill="#005caa"/>
        </g>
      </g>
      <g id="Group_50">
        <g id="Group_40">
          <g id="Graphic_49">
            <path d="M 58.535265 240.9449 L 67.071265 240.9449 C 68.62594 240.9449 70.08526 241.06955 71.449265 241.3189 C 72.81327 241.56822 74.00859 242.00822 75.035265 242.6389 C 76.06194 243.26956 76.8686 244.12755 77.455265 245.2129 C 78.041935 246.29823 78.335265 247.67688 78.335265 249.3489 C 78.335265 251.07956 78.019935 252.49488 77.389265 253.5949 C 76.758595 254.6949 75.90794 255.56022 74.837265 256.1909 C 73.76659 256.82156 72.534605 257.25422 71.141265 257.4889 C 69.747925 257.72356 68.30327 257.8409 66.807265 257.8409 L 61.703265 257.8409 L 61.703265 272.5369 L 58.535265 272.5369 Z M 61.703265 244.0249 L 61.703265 254.7609 L 66.939265 254.7609 C 68.112604 254.7609 69.19793 254.68756 70.195265 254.5409 C 71.1926 254.39422 72.050595 254.11556 72.769265 253.7049 C 73.487935 253.29422 74.04526 252.7369 74.441265 252.0329 C 74.83727 251.3289 75.035265 250.43423 75.035265 249.3489 C 75.035265 248.26355 74.83727 247.37623 74.441265 246.6869 C 74.04526 245.99755 73.49527 245.4549 72.791265 245.0589 C 72.08726 244.6629 71.26594 244.39156 70.327265 244.2449 C 69.38859 244.09822 68.3766 244.0249 67.291265 244.0249 Z" fill="#77c167"/>
          </g>
          <g id="Graphic_48">
            <path d="M 91.65127 240.9449 L 91.65127 269.4569 L 103.79527 269.4569 L 103.79527 272.5369 L 88.48327 272.5369 L 88.48327 240.9449 Z" fill="#77c167"/>
          </g>
          <g id="Graphic_47">
            <path d="M 124.94327 240.9449 L 125.69127 240.9449 L 140.34327 272.5369 L 137.04327 272.5369 L 132.20327 262.1529 L 118.34327 262.1529 L 113.50327 272.5369 L 110.20327 272.5369 Z M 119.75127 259.1609 L 130.79527 259.1609 L 125.29527 247.3249 Z" fill="#77c167"/>
          </g>
          <g id="Graphic_46">
            <path d="M 146.55662 272.5369 L 146.55662 240.9449 L 147.21662 240.9449 L 168.16062 265.1449 L 168.16062 240.9449 L 171.32862 240.9449 L 171.32862 272.5369 L 170.62462 272.5369 L 149.72462 248.6449 L 149.72462 272.5369 Z" fill="#005caa"/>
          </g>
          <g id="Graphic_45">
            <path d="M 181.10597 272.5369 L 181.10597 240.9449 L 199.14597 240.9449 L 199.14597 243.9809 L 184.27397 243.9809 L 184.27397 253.9689 L 199.14597 253.9689 L 199.14597 256.9609 L 184.27397 256.9609 L 184.27397 269.4569 L 199.14597 269.4569 L 199.14597 272.5369 Z" fill="#005caa"/>
          </g>
          <g id="Graphic_44">
            <path d="M 209.35662 240.9449 L 226.69262 240.9449 L 226.69262 244.0249 L 219.65262 244.0249 L 219.65262 272.5369 L 216.48462 272.5369 L 216.48462 244.0249 L 209.35662 244.0249 Z" fill="#005caa"/>
          </g>
          <g id="Graphic_43">
            <path d="M 239.39262 240.9449 L 239.39262 269.4569 L 251.53662 269.4569 L 251.53662 272.5369 L 236.22462 272.5369 L 236.22462 240.9449 Z" fill="#77c167"/>
          </g>
          <g id="Graphic_42">
            <path d="M 272.68462 240.9449 L 273.43262 240.9449 L 288.08462 272.5369 L 284.78462 272.5369 L 279.94462 262.1529 L 266.08462 262.1529 L 261.24462 272.5369 L 257.94462 272.5369 Z M 267.49262 259.1609 L 278.53662 259.1609 L 273.03662 247.3249 Z" fill="#77c167"/>
          </g>
          <g id="Graphic_41">
            <path d="M 294.29797 240.9449 L 300.98597 240.9449 C 302.658 240.9449 304.10263 241.13555 305.31997 241.5169 C 306.5373 241.89822 307.54197 242.43355 308.33397 243.1229 C 309.12598 243.81223 309.71264 244.62622 310.09397 245.5649 C 310.4753 246.50356 310.66597 247.53022 310.66597 248.6449 C 310.66597 250.0529 310.33598 251.32155 309.67597 252.4509 C 309.01597 253.58023 307.99665 254.52622 306.61797 255.2889 C 311.04733 256.7849 313.26197 259.51287 313.26197 263.4729 C 313.26197 264.64623 313.03464 265.78288 312.57997 266.8829 C 312.1253 267.9829 311.4653 268.9509 310.59997 269.7869 C 309.73464 270.6229 308.66398 271.29022 307.38797 271.7889 C 306.11197 272.28756 304.638 272.5369 302.96597 272.5369 L 294.29797 272.5369 Z M 297.46597 257.2689 L 297.46597 269.4569 L 302.34997 269.4569 C 303.6993 269.4569 304.85064 269.28822 305.80397 268.9509 C 306.7573 268.61355 307.54197 268.17356 308.15797 267.6309 C 308.77398 267.08822 309.22864 266.45756 309.52197 265.7389 C 309.8153 265.02022 309.96197 264.27956 309.96197 263.5169 C 309.96197 261.5222 309.16265 259.98223 307.56397 258.8969 C 305.9653 257.81155 303.69932 257.2689 300.76597 257.2689 Z M 297.46597 244.0249 L 297.46597 254.1889 L 299.57797 254.1889 C 301.92465 254.1889 303.8093 253.76356 305.23197 252.9129 C 306.65465 252.06222 307.36597 250.63957 307.36597 248.6449 C 307.36597 247.23688 306.8673 246.1149 305.86997 245.2789 C 304.87264 244.44288 303.45 244.0249 301.60197 244.0249 Z" fill="#77c167"/>
          </g>
        </g>
        <g id="Group_37">
          <title>V3</title>
          <g id="Graphic_39">
            <path d="M 288.7958 280.16408 L 290.27845 280.16408 L 294.80244 290.7137 L 299.40245 280.16408 L 300.8851 280.16408 L 294.9545 293.81206 L 294.65037 293.81206 Z" fill="#005caa"/>
          </g>
          <g id="Graphic_38">
            <path d="M 302.97602 290.99883 L 304.19255 290.42858 C 304.484 291.1509 304.89586 291.74332 305.4281 292.20586 C 305.96033 292.6684 306.68264 292.89966 307.59504 292.89966 C 308.12728 292.89966 308.5898 292.8173 308.98265 292.65255 C 309.3755 292.4878 309.7018 292.26922 309.9616 291.99677 C 310.22136 291.7243 310.4146 291.41385 310.54134 291.06536 C 310.66806 290.71687 310.73142 290.3589 310.73142 289.9914 C 310.73142 289.0283 310.38927 288.27747 309.70497 287.7389 C 309.02067 287.20033 308.03224 286.93105 306.73967 286.93105 L 306.73967 285.6765 C 307.8295 285.61313 308.62783 285.36286 309.13472 284.92567 C 309.6416 284.48847 309.89505 283.92773 309.89505 283.24343 C 309.89505 282.95197 309.8412 282.67318 309.7335 282.40706 C 309.62577 282.14094 309.46737 281.90968 309.25827 281.71326 C 309.04918 281.51684 308.79574 281.3616 308.49794 281.24755 C 308.20014 281.1335 307.86116 281.07648 307.481 281.07648 C 306.80936 281.07648 306.2328 281.26973 305.75124 281.65623 C 305.2697 282.04274 304.8832 282.58447 304.59173 283.28145 L 303.3562 282.76822 C 303.7617 281.80513 304.33828 281.0733 305.08594 280.57276 C 305.8336 280.0722 306.64462 279.82193 307.519 279.82193 C 308.10194 279.82193 308.62783 279.9138 309.0967 280.09755 C 309.56558 280.2813 309.96475 280.5284 310.29423 280.83887 C 310.6237 281.14935 310.87715 281.51367 311.05456 281.93185 C 311.23197 282.35004 311.32068 282.78723 311.32068 283.24343 C 311.32068 283.92773 311.14327 284.52015 310.78844 285.0207 C 310.43362 285.52126 309.94574 285.9046 309.3248 286.1707 C 311.1496 286.82967 312.062 288.07154 312.062 289.89635 C 312.062 290.42858 311.96696 290.94814 311.77688 291.45503 C 311.5868 291.96192 311.30167 292.41495 310.9215 292.81412 C 310.54133 293.2133 310.06613 293.53644 309.49588 293.78355 C 308.92563 294.03066 308.26034 294.1542 307.5 294.1542 C 306.92975 294.1542 306.41336 294.07818 305.95082 293.9261 C 305.4883 293.77404 305.0701 293.55862 304.69627 293.27983 C 304.32244 293.00104 303.99297 292.6684 303.70784 292.2819 C 303.4227 291.8954 303.17878 291.4677 302.97602 290.99883 Z" fill="#005caa"/>
          </g>
        </g>
      </g>
    </g>
  </g>
</svg>
