<?xml version="1.0" encoding="UTF-8" standalone="no"?>
<!DOCTYPE svg PUBLIC "-//W3C//DTD SVG 1.1//EN" "http://www.w3.org/Graphics/SVG/1.1/DTD/svg11.dtd">
<svg xmlns="http://www.w3.org/2000/svg" xmlns:dc="http://purl.org/dc/elements/1.1/" version="1.1" xmlns:xl="http://www.w3.org/1999/xlink" viewBox="51 97 256 179" width="256" height="179">
  <defs>
    <linearGradient x1="0" x2="1" id="Gradient" gradientUnits="userSpaceOnUse">
      <stop offset="0" stop-color="#77c167"/>
      <stop offset="1" stop-color="white"/>
    </linearGradient>
    <linearGradient id="Obj_Gradient" xl:href="#Gradient" gradientTransform="translate(264.04708 136.43539) rotate(180) scale(97.56925)"/>
    <linearGradient id="Obj_Gradient_2" xl:href="#Gradient" gradientTransform="translate(272.55102 173.86338) rotate(180) scale(121.99932)"/>
    <linearGradient id="Obj_Gradient_3" xl:href="#Gradient" gradientTransform="translate(209.57343 155.22454) rotate(180) scale(124.10903)"/>
    <linearGradient id="Obj_Gradient_4" xl:href="#Gradient" gradientTransform="translate(181.35436 192.39848) rotate(180) scale(70.378145)"/>
    <linearGradient id="Obj_Gradient_5" xl:href="#Gradient" gradientTransform="translate(194.26158 118.13475) rotate(180) scale(88.95466)"/>
  </defs>
  <metadata> Produced by OmniGraffle 7.18.6\n2025-04-02 14:37:49 +0000</metadata>
  <g id="Logo_v3_vertical_alt_1" fill="none" fill-opacity="1" stroke-dasharray="none" stroke-opacity="1" stroke="none">
    <title>Logo v3 vertical alt 1</title>
    <g id="Logo_v3_vertical_alt_1_Layer_1">
      <title>Layer 1</title>
      <g id="Group_36">
        <g id="Graphic_14">
          <title>Rectangle</title>
          <rect x="166.47783" y="134.95104" width="97.56925" height="2.9686864" fill="url(#Obj_Gradient)"/>
        </g>
        <g id="Graphic_13">
          <rect x="150.5517" y="172.37904" width="121.99932" height="2.9686864" fill="url(#Obj_Gradient_2)"/>
        </g>
        <g id="Graphic_12">
          <rect x="85.4644" y="153.7402" width="124.10903" height="2.9686864" fill="url(#Obj_Gradient_3)"/>
        </g>
        <g id="Graphic_11">
          <rect x="110.97621" y="190.91414" width="70.378145" height="2.9686864" fill="url(#Obj_Gradient_4)"/>
        </g>
        <g id="Graphic_10">
          <title>Rectangle</title>
          <rect x="105.30692" y="116.65041" width="88.95466" height="2.9686864" fill="url(#Obj_Gradient_5)"/>
        </g>
        <g id="Graphic_9">
          <title>Circle</title>
          <circle cx="181.59104" cy="158.48885" r="56.6930036451332" stroke="#005caa" stroke-linecap="round" stroke-linejoin="round" stroke-width="9"/>
        </g>
        <g id="Graphic_8">
          <title>Circle</title>
          <circle cx="185.69014" cy="192.39848" r="5.90315903496199" fill="#005caa"/>
        </g>
        <g id="Graphic_7">
          <title>Circle</title>
          <circle cx="150.25804" cy="173.8795" r="5.90741087101371" fill="#005caa"/>
        </g>
        <g id="Graphic_6">
          <title>Circle</title>
          <circle cx="216.8945" cy="154.89842" r="8.2417453170529" fill="#005caa"/>
        </g>
        <g id="Graphic_5">
          <title>Circle</title>
          <circle cx="105.4729" cy="155.53283" r="4.4263062116096" fill="#005caa"/>
        </g>
        <g id="Graphic_4">
          <title>Circle</title>
          <circle cx="252.87006" cy="136.43539" r="4.01102989975987" fill="#005caa"/>
        </g>
        <g id="Graphic_3">
          <title>Circle</title>
          <circle cx="166.62307" cy="136.43539" r="4.95071650208541" fill="#005caa"/>
        </g>
        <g id="Graphic_2">
          <title>Circle</title>
          <circle cx="198.69787" cy="118.13475" r="5.90315903496199" fill="#005caa"/>
        </g>
      </g>
      <g id="Group_50">
        <g id="Graphic_59">
          <path d="M 51.87368 243.77953 L 60.40968 243.77953 C 61.96435 243.77953 63.42367 243.9042 64.78768 244.15353 C 66.151685 244.40287 67.34701 244.84286 68.37368 245.47353 C 69.40035 246.1042 70.20701 246.9622 70.79368 248.04753 C 71.38035 249.13287 71.67368 250.51153 71.67368 252.18353 C 71.67368 253.9142 71.35835 255.32953 70.72768 256.42953 C 70.09701 257.52954 69.24635 258.39486 68.17568 259.02553 C 67.10501 259.6562 65.87302 260.08887 64.47968 260.32353 C 63.08634 260.5582 61.641686 260.67553 60.14568 260.67553 L 55.04168 260.67553 L 55.04168 275.37153 L 51.87368 275.37153 Z M 55.04168 246.85953 L 55.04168 257.59553 L 60.27768 257.59553 C 61.45102 257.59553 62.53634 257.5222 63.53368 257.37553 C 64.53102 257.22887 65.38901 256.9502 66.10768 256.53953 C 66.82635 256.12887 67.38368 255.57154 67.77968 254.86753 C 68.17568 254.16353 68.37368 253.26887 68.37368 252.18353 C 68.37368 251.0982 68.17568 250.21087 67.77968 249.52153 C 67.38368 248.8322 66.83368 248.28954 66.12968 247.89353 C 65.425675 247.49753 64.60435 247.2262 63.66568 247.07953 C 62.72701 246.93287 61.71502 246.85953 60.62968 246.85953 Z" fill="#77c167"/>
        </g>
        <g id="Graphic_58">
          <path d="M 84.98968 243.77953 L 84.98968 272.29153 L 97.13368 272.29153 L 97.13368 275.37153 L 81.82168 275.37153 L 81.82168 243.77953 Z" fill="#77c167"/>
        </g>
        <g id="Graphic_57">
          <path d="M 118.28168 243.77953 L 119.02968 243.77953 L 133.68168 275.37153 L 130.38168 275.37153 L 125.54168 264.98753 L 111.68168 264.98753 L 106.84168 275.37153 L 103.54168 275.37153 Z M 113.08968 261.99553 L 124.13368 261.99553 L 118.63368 250.15953 Z" fill="#77c167"/>
        </g>
        <g id="Graphic_56">
          <path d="M 139.89503 275.37153 L 139.89503 243.77953 L 140.55503 243.77953 L 161.49903 267.97953 L 161.49903 243.77953 L 164.66703 243.77953 L 164.66703 275.37153 L 163.96303 275.37153 L 143.06303 251.47953 L 143.06303 275.37153 Z" fill="#005caa"/>
        </g>
        <g id="Graphic_55">
          <path d="M 174.44439 275.37153 L 174.44439 243.77953 L 192.48439 243.77953 L 192.48439 246.81553 L 177.61239 246.81553 L 177.61239 256.80353 L 192.48439 256.80353 L 192.48439 259.79553 L 177.61239 259.79553 L 177.61239 272.29153 L 192.48439 272.29153 L 192.48439 275.37153 Z" fill="#005caa"/>
        </g>
        <g id="Graphic_54">
          <path d="M 199.86039 243.77953 L 217.19639 243.77953 L 217.19639 246.85953 L 210.15639 246.85953 L 210.15639 275.37153 L 206.98839 275.37153 L 206.98839 246.85953 L 199.86039 246.85953 Z" fill="#005caa"/>
        </g>
        <g id="Graphic_53">
          <path d="M 229.8964 243.77953 L 229.8964 272.29153 L 242.0404 272.29153 L 242.0404 275.37153 L 226.7284 275.37153 L 226.7284 243.77953 Z" fill="#77c167"/>
        </g>
        <g id="Graphic_52">
          <path d="M 263.1884 243.77953 L 263.9364 243.77953 L 278.5884 275.37153 L 275.2884 275.37153 L 270.4484 264.98753 L 256.5884 264.98753 L 251.7484 275.37153 L 248.4484 275.37153 Z M 257.9964 261.99553 L 269.0404 261.99553 L 263.5404 250.15953 Z" fill="#77c167"/>
        </g>
        <g id="Graphic_51">
          <path d="M 284.80174 243.77953 L 291.48974 243.77953 C 293.16175 243.77953 294.6064 243.9702 295.82374 244.35153 C 297.04108 244.73287 298.04574 245.2682 298.83774 245.95753 C 299.62974 246.64687 300.2164 247.46086 300.59774 248.39953 C 300.97908 249.3382 301.16974 250.36486 301.16974 251.47953 C 301.16974 252.88754 300.83974 254.1562 300.17974 255.28553 C 299.51974 256.41487 298.5004 257.36086 297.12174 258.12353 C 301.5511 259.61954 303.76574 262.3475 303.76574 266.30753 C 303.76574 267.48087 303.5384 268.61753 303.08374 269.71753 C 302.62907 270.81754 301.96908 271.78553 301.10374 272.62153 C 300.2384 273.45754 299.16775 274.12487 297.89174 274.62353 C 296.61573 275.1222 295.14175 275.37153 293.46974 275.37153 L 284.80174 275.37153 Z M 287.96974 260.10353 L 287.96974 272.29153 L 292.85374 272.29153 C 294.20308 272.29153 295.3544 272.12287 296.30774 271.78553 C 297.26108 271.4482 298.04574 271.0082 298.66174 270.46553 C 299.27774 269.92286 299.7324 269.2922 300.02574 268.57353 C 300.31908 267.85486 300.46574 267.1142 300.46574 266.35153 C 300.46574 264.35686 299.6664 262.81687 298.06774 261.73153 C 296.46907 260.6462 294.2031 260.10353 291.26974 260.10353 Z M 287.96974 246.85953 L 287.96974 257.02353 L 290.08174 257.02353 C 292.42842 257.02353 294.31307 256.5982 295.73574 255.74753 C 297.1584 254.89686 297.86974 253.4742 297.86974 251.47953 C 297.86974 250.07153 297.37108 248.94954 296.37374 248.11353 C 295.3764 247.27753 293.95375 246.85953 292.10574 246.85953 Z" fill="#77c167"/>
        </g>
      </g>
    </g>
  </g>
</svg>
