<?xml version="1.0" encoding="UTF-8" standalone="no"?>
<!DOCTYPE svg PUBLIC "-//W3C//DTD SVG 1.1//EN" "http://www.w3.org/Graphics/SVG/1.1/DTD/svg11.dtd">
<svg xmlns="http://www.w3.org/2000/svg" version="1.1" xmlns:dc="http://purl.org/dc/elements/1.1/" xmlns:xl="http://www.w3.org/1999/xlink" viewBox="85 97 465 123" width="465" height="123">
  <defs>
    <linearGradient x1="0" x2="1" id="Gradient" gradientUnits="userSpaceOnUse">
      <stop offset="0" stop-color="#77c167"/>
      <stop offset="1" stop-color="white"/>
    </linearGradient>
    <linearGradient id="Obj_Gradient" xl:href="#Gradient" gradientTransform="translate(263.62205 136.43539) rotate(180) scale(97.56925)"/>
    <linearGradient id="Obj_Gradient_2" xl:href="#Gradient" gradientTransform="translate(272.126 173.86338) rotate(180) scale(121.99932)"/>
    <linearGradient id="Obj_Gradient_3" xl:href="#Gradient" gradientTransform="translate(209.1484 155.22454) rotate(180) scale(124.10903)"/>
    <linearGradient id="Obj_Gradient_4" xl:href="#Gradient" gradientTransform="translate(180.92933 192.39848) rotate(180) scale(70.378145)"/>
    <linearGradient id="Obj_Gradient_5" xl:href="#Gradient" gradientTransform="translate(193.83656 118.13475) rotate(180) scale(88.95466)"/>
  </defs>
  <metadata> Produced by OmniGraffle 7.18.6\n2025-04-02 14:10:35 +0000</metadata>
  <g id="Logo_horizontal_1" fill="none" stroke="none" stroke-opacity="1" fill-opacity="1" stroke-dasharray="none">
    <title>Logo horizontal 1</title>
    <g id="Logo_horizontal_1_Layer_1">
      <title>Layer 1</title>
      <g id="Group_36">
        <g id="Graphic_14">
          <title>Rectangle</title>
          <rect x="166.0528" y="134.95104" width="97.56925" height="2.9686864" fill="url(#Obj_Gradient)"/>
        </g>
        <g id="Graphic_13">
          <rect x="150.12667" y="172.37904" width="121.99932" height="2.9686864" fill="url(#Obj_Gradient_2)"/>
        </g>
        <g id="Graphic_12">
          <rect x="85.03937" y="153.7402" width="124.10903" height="2.9686864" fill="url(#Obj_Gradient_3)"/>
        </g>
        <g id="Graphic_11">
          <rect x="110.55118" y="190.91414" width="70.378145" height="2.9686864" fill="url(#Obj_Gradient_4)"/>
        </g>
        <g id="Graphic_10">
          <title>Rectangle</title>
          <rect x="104.88189" y="116.65041" width="88.95466" height="2.9686864" fill="url(#Obj_Gradient_5)"/>
        </g>
        <g id="Graphic_9">
          <title>Circle</title>
          <circle cx="181.16602" cy="158.48885" r="56.6930036451332" stroke="#005caa" stroke-linecap="round" stroke-linejoin="round" stroke-width="9"/>
        </g>
        <g id="Graphic_8">
          <title>Circle</title>
          <circle cx="185.2651" cy="192.39848" r="5.90315903496199" fill="#005caa"/>
        </g>
        <g id="Graphic_7">
          <title>Circle</title>
          <circle cx="149.83302" cy="173.8795" r="5.90741087101372" fill="#005caa"/>
        </g>
        <g id="Graphic_6">
          <title>Circle</title>
          <circle cx="216.46947" cy="154.89842" r="8.24174531705291" fill="#005caa"/>
        </g>
        <g id="Graphic_5">
          <title>Circle</title>
          <circle cx="105.04788" cy="155.53283" r="4.4263062116096" fill="#005caa"/>
        </g>
        <g id="Graphic_4">
          <title>Circle</title>
          <circle cx="252.44503" cy="136.43539" r="4.01102989975986" fill="#005caa"/>
        </g>
        <g id="Graphic_3">
          <title>Circle</title>
          <circle cx="166.19804" cy="136.43539" r="4.95071650208541" fill="#005caa"/>
        </g>
        <g id="Graphic_2">
          <title>Circle</title>
          <circle cx="198.27284" cy="118.13475" r="5.90315903496199" fill="#005caa"/>
        </g>
      </g>
      <g id="Group_35">
        <g id="Graphic_22">
          <path d="M 292.0734 139.54659 L 300.6094 139.54659 C 302.16408 139.54659 303.6234 139.67125 304.9874 139.92059 C 306.3514 140.16992 307.54673 140.60992 308.5734 141.24059 C 309.60008 141.87126 310.40673 142.72925 310.9934 143.81459 C 311.58007 144.89993 311.8734 146.27858 311.8734 147.95059 C 311.8734 149.68126 311.55807 151.09658 310.9274 152.19659 C 310.29673 153.2966 309.44608 154.16192 308.3754 154.79259 C 307.30473 155.42326 306.07274 155.85592 304.6794 156.09059 C 303.28606 156.32526 301.8414 156.44259 300.3454 156.44259 L 295.2414 156.44259 L 295.2414 171.13859 L 292.0734 171.13859 Z M 295.2414 142.62659 L 295.2414 153.36259 L 300.4774 153.36259 C 301.65074 153.36259 302.73607 153.28925 303.7334 153.14259 C 304.73074 152.99592 305.58873 152.71726 306.3074 152.30659 C 307.02607 151.89592 307.5834 151.33859 307.9794 150.63459 C 308.3754 149.93058 308.5734 149.03593 308.5734 147.95059 C 308.5734 146.86525 308.3754 145.97792 307.9794 145.28859 C 307.5834 144.59925 307.0334 144.05659 306.3294 143.66059 C 305.6254 143.26459 304.80408 142.99325 303.8654 142.84659 C 302.92673 142.69992 301.91474 142.62659 300.8294 142.62659 Z" fill="#77c167"/>
        </g>
        <g id="Graphic_23">
          <path d="M 325.1894 139.54659 L 325.1894 168.05859 L 337.3334 168.05859 L 337.3334 171.13859 L 322.0214 171.13859 L 322.0214 139.54659 Z" fill="#77c167"/>
        </g>
        <g id="Graphic_24">
          <path d="M 358.4814 139.54659 L 359.2294 139.54659 L 373.8814 171.13859 L 370.5814 171.13859 L 365.7414 160.75459 L 351.8814 160.75459 L 347.0414 171.13859 L 343.7414 171.13859 Z M 353.2894 157.76259 L 364.3334 157.76259 L 358.8334 145.92659 Z" fill="#77c167"/>
        </g>
        <g id="Graphic_25">
          <path d="M 380.09476 171.13859 L 380.09476 139.54659 L 380.75476 139.54659 L 401.69876 163.74659 L 401.69876 139.54659 L 404.86676 139.54659 L 404.86676 171.13859 L 404.16276 171.13859 L 383.26276 147.24659 L 383.26276 171.13859 Z" fill="#005caa"/>
        </g>
        <g id="Graphic_26">
          <path d="M 414.6441 171.13859 L 414.6441 139.54659 L 432.6841 139.54659 L 432.6841 142.58259 L 417.8121 142.58259 L 417.8121 152.57059 L 432.6841 152.57059 L 432.6841 155.56259 L 417.8121 155.56259 L 417.8121 168.05859 L 432.6841 168.05859 L 432.6841 171.13859 Z" fill="#005caa"/>
        </g>
        <g id="Graphic_27">
          <path d="M 442.89476 139.54659 L 460.23076 139.54659 L 460.23076 142.62659 L 453.19076 142.62659 L 453.19076 171.13859 L 450.02276 171.13859 L 450.02276 142.62659 L 442.89476 142.62659 Z" fill="#005caa"/>
        </g>
        <g id="Graphic_28">
          <path d="M 472.93076 139.54659 L 472.93076 168.05859 L 485.07476 168.05859 L 485.07476 171.13859 L 469.76276 171.13859 L 469.76276 139.54659 Z" fill="#77c167"/>
        </g>
        <g id="Graphic_29">
          <path d="M 506.22276 139.54659 L 506.97076 139.54659 L 521.62276 171.13859 L 518.32276 171.13859 L 513.48276 160.75459 L 499.62276 160.75459 L 494.78276 171.13859 L 491.48276 171.13859 Z M 501.03076 157.76259 L 512.07476 157.76259 L 506.57476 145.92659 Z" fill="#77c167"/>
        </g>
        <g id="Graphic_30">
          <path d="M 527.8361 139.54659 L 534.5241 139.54659 C 536.1961 139.54659 537.6408 139.73725 538.8581 140.11859 C 540.07545 140.49992 541.0801 141.03525 541.8721 141.72459 C 542.6641 142.41392 543.2508 143.22792 543.6321 144.16659 C 544.01345 145.10526 544.2041 146.13192 544.2041 147.24659 C 544.2041 148.6546 543.8741 149.92325 543.2141 151.05259 C 542.5541 152.18193 541.5348 153.12792 540.1561 153.89059 C 544.5855 155.3866 546.8001 158.11457 546.8001 162.07459 C 546.8001 163.24793 546.5728 164.38458 546.1181 165.48459 C 545.66344 166.5846 545.00345 167.55258 544.1381 168.38859 C 543.2728 169.2246 542.2021 169.89192 540.9261 170.39059 C 539.6501 170.88926 538.1761 171.13859 536.5041 171.13859 L 527.8361 171.13859 Z M 531.0041 155.87059 L 531.0041 168.05859 L 535.8881 168.05859 C 537.23745 168.05859 538.3888 167.88992 539.3421 167.55259 C 540.29545 167.21525 541.0801 166.77526 541.6961 166.23259 C 542.3121 165.68992 542.7668 165.05926 543.0601 164.34059 C 543.35345 163.62192 543.5001 162.88126 543.5001 162.11859 C 543.5001 160.12391 542.7008 158.58393 541.1021 157.49859 C 539.50344 156.41325 537.23746 155.87059 534.3041 155.87059 Z M 531.0041 142.62659 L 531.0041 152.79059 L 533.1161 152.79059 C 535.4628 152.79059 537.34744 152.36526 538.7701 151.51459 C 540.1928 150.66392 540.9041 149.24126 540.9041 147.24659 C 540.9041 145.83858 540.40545 144.7166 539.4081 143.88059 C 538.4108 143.04458 536.9881 142.62659 535.1401 142.62659 Z" fill="#77c167"/>
        </g>
      </g>
    </g>
  </g>
</svg>
