<?xml version="1.0" encoding="UTF-8" standalone="no"?>
<!DOCTYPE svg PUBLIC "-//W3C//DTD SVG 1.1//EN" "http://www.w3.org/Graphics/SVG/1.1/DTD/svg11.dtd">
<svg xmlns="http://www.w3.org/2000/svg" xmlns:dc="http://purl.org/dc/elements/1.1/" version="1.1" xmlns:xl="http://www.w3.org/1999/xlink" viewBox="85 97 459 123" width="459" height="123">
  <defs>
    <linearGradient x1="0" x2="1" id="Gradient" gradientUnits="userSpaceOnUse">
      <stop offset="0" stop-color="#77c167"/>
      <stop offset="1" stop-color="white"/>
    </linearGradient>
    <linearGradient id="Obj_Gradient" xl:href="#Gradient" gradientTransform="translate(263.62205 136.43539) rotate(180) scale(97.56925)"/>
    <linearGradient id="Obj_Gradient_2" xl:href="#Gradient" gradientTransform="translate(272.126 173.86338) rotate(180) scale(121.99932)"/>
    <linearGradient id="Obj_Gradient_3" xl:href="#Gradient" gradientTransform="translate(209.1484 155.22454) rotate(180) scale(124.10903)"/>
    <linearGradient id="Obj_Gradient_4" xl:href="#Gradient" gradientTransform="translate(180.92933 192.39848) rotate(180) scale(70.378145)"/>
    <linearGradient id="Obj_Gradient_5" xl:href="#Gradient" gradientTransform="translate(193.83656 118.13475) rotate(180) scale(88.95466)"/>
  </defs>
  <metadata> Produced by OmniGraffle 7.18.6\n2025-04-02 14:37:49 +0000</metadata>
  <g id="Logo_horizontal" fill="none" fill-opacity="1" stroke-dasharray="none" stroke-opacity="1" stroke="none">
    <title>Logo horizontal</title>
    <g id="Logo_horizontal_Layer_1">
      <title>Layer 1</title>
      <g id="Group_36">
        <g id="Graphic_14">
          <title>Rectangle</title>
          <rect x="166.0528" y="134.95104" width="97.56925" height="2.9686864" fill="url(#Obj_Gradient)"/>
        </g>
        <g id="Graphic_13">
          <rect x="150.12667" y="172.37904" width="121.99932" height="2.9686864" fill="url(#Obj_Gradient_2)"/>
        </g>
        <g id="Graphic_12">
          <rect x="85.03937" y="153.7402" width="124.10903" height="2.9686864" fill="url(#Obj_Gradient_3)"/>
        </g>
        <g id="Graphic_11">
          <rect x="110.55118" y="190.91414" width="70.378145" height="2.9686864" fill="url(#Obj_Gradient_4)"/>
        </g>
        <g id="Graphic_10">
          <title>Rectangle</title>
          <rect x="104.88189" y="116.65041" width="88.95466" height="2.9686864" fill="url(#Obj_Gradient_5)"/>
        </g>
        <g id="Graphic_9">
          <title>Circle</title>
          <circle cx="181.16602" cy="158.48885" r="56.6930036451332" stroke="#005caa" stroke-linecap="round" stroke-linejoin="round" stroke-width="9"/>
        </g>
        <g id="Graphic_8">
          <title>Circle</title>
          <circle cx="185.2651" cy="192.39848" r="5.90315903496199" fill="#005caa"/>
        </g>
        <g id="Graphic_7">
          <title>Circle</title>
          <circle cx="149.83302" cy="173.8795" r="5.90741087101372" fill="#005caa"/>
        </g>
        <g id="Graphic_6">
          <title>Circle</title>
          <circle cx="216.46947" cy="154.89842" r="8.24174531705291" fill="#005caa"/>
        </g>
        <g id="Graphic_5">
          <title>Circle</title>
          <circle cx="105.04788" cy="155.53283" r="4.4263062116096" fill="#005caa"/>
        </g>
        <g id="Graphic_4">
          <title>Circle</title>
          <circle cx="252.44503" cy="136.43539" r="4.01102989975986" fill="#005caa"/>
        </g>
        <g id="Graphic_3">
          <title>Circle</title>
          <circle cx="166.19804" cy="136.43539" r="4.95071650208541" fill="#005caa"/>
        </g>
        <g id="Graphic_2">
          <title>Circle</title>
          <circle cx="198.27284" cy="118.13475" r="5.90315903496199" fill="#005caa"/>
        </g>
      </g>
      <g id="Group_37">
        <g id="Graphic_22">
          <path d="M 289.23876 139.54659 L 297.77476 139.54659 C 299.32943 139.54659 300.78875 139.67125 302.15276 139.92059 C 303.51677 140.16992 304.7121 140.60992 305.73876 141.24059 C 306.76543 141.87126 307.5721 142.72925 308.15876 143.81459 C 308.74543 144.89993 309.03876 146.27858 309.03876 147.95059 C 309.03876 149.68126 308.72343 151.09658 308.09276 152.19659 C 307.4621 153.2966 306.61143 154.16192 305.54076 154.79259 C 304.4701 155.42326 303.2381 155.85592 301.84476 156.09059 C 300.45142 156.32526 299.00677 156.44259 297.51076 156.44259 L 292.40676 156.44259 L 292.40676 171.13859 L 289.23876 171.13859 Z M 292.40676 142.62659 L 292.40676 153.36259 L 297.64276 153.36259 C 298.8161 153.36259 299.90142 153.28925 300.89876 153.14259 C 301.8961 152.99592 302.7541 152.71726 303.47276 152.30659 C 304.19143 151.89592 304.74876 151.33859 305.14476 150.63459 C 305.54076 149.93058 305.73876 149.03593 305.73876 147.95059 C 305.73876 146.86525 305.54076 145.97792 305.14476 145.28859 C 304.74876 144.59925 304.19876 144.05659 303.49476 143.66059 C 302.79075 143.26459 301.96943 142.99325 301.03076 142.84659 C 300.0921 142.69992 299.0801 142.62659 297.99476 142.62659 Z" fill="#77c167"/>
        </g>
        <g id="Graphic_23">
          <path d="M 322.35476 139.54659 L 322.35476 168.05859 L 334.49876 168.05859 L 334.49876 171.13859 L 319.18676 171.13859 L 319.18676 139.54659 Z" fill="#77c167"/>
        </g>
        <g id="Graphic_24">
          <path d="M 355.64676 139.54659 L 356.39476 139.54659 L 371.04676 171.13859 L 367.74676 171.13859 L 362.90676 160.75459 L 349.04676 160.75459 L 344.20676 171.13859 L 340.90676 171.13859 Z M 350.45476 157.76259 L 361.49876 157.76259 L 355.99876 145.92659 Z" fill="#77c167"/>
        </g>
        <g id="Graphic_25">
          <path d="M 377.2601 171.13859 L 377.2601 139.54659 L 377.9201 139.54659 L 398.8641 163.74659 L 398.8641 139.54659 L 402.0321 139.54659 L 402.0321 171.13859 L 401.3281 171.13859 L 380.4281 147.24659 L 380.4281 171.13859 Z" fill="#005caa"/>
        </g>
        <g id="Graphic_26">
          <path d="M 411.80947 171.13859 L 411.80947 139.54659 L 429.84947 139.54659 L 429.84947 142.58259 L 414.97747 142.58259 L 414.97747 152.57059 L 429.84947 152.57059 L 429.84947 155.56259 L 414.97747 155.56259 L 414.97747 168.05859 L 429.84947 168.05859 L 429.84947 171.13859 Z" fill="#005caa"/>
        </g>
        <g id="Graphic_27">
          <path d="M 437.22547 139.54659 L 454.56147 139.54659 L 454.56147 142.62659 L 447.52147 142.62659 L 447.52147 171.13859 L 444.35347 171.13859 L 444.35347 142.62659 L 437.22547 142.62659 Z" fill="#005caa"/>
        </g>
        <g id="Graphic_28">
          <path d="M 467.26147 139.54659 L 467.26147 168.05859 L 479.40547 168.05859 L 479.40547 171.13859 L 464.09347 171.13859 L 464.09347 139.54659 Z" fill="#77c167"/>
        </g>
        <g id="Graphic_29">
          <path d="M 500.55347 139.54659 L 501.30147 139.54659 L 515.95347 171.13859 L 512.65347 171.13859 L 507.81347 160.75459 L 493.95347 160.75459 L 489.11347 171.13859 L 485.81347 171.13859 Z M 495.36147 157.76259 L 506.40547 157.76259 L 500.90547 145.92659 Z" fill="#77c167"/>
        </g>
        <g id="Graphic_30">
          <path d="M 522.1668 139.54659 L 528.8548 139.54659 C 530.5268 139.54659 531.9715 139.73725 533.1888 140.11859 C 534.40616 140.49992 535.4108 141.03525 536.2028 141.72459 C 536.9948 142.41392 537.5815 143.22792 537.9628 144.16659 C 538.34416 145.10526 538.5348 146.13192 538.5348 147.24659 C 538.5348 148.6546 538.2048 149.92325 537.5448 151.05259 C 536.8848 152.18193 535.8655 153.12792 534.4868 153.89059 C 538.9162 155.3866 541.1308 158.11457 541.1308 162.07459 C 541.1308 163.24793 540.9035 164.38458 540.4488 165.48459 C 539.99415 166.5846 539.33416 167.55258 538.4688 168.38859 C 537.6035 169.2246 536.5328 169.89192 535.2568 170.39059 C 533.9808 170.88926 532.5068 171.13859 530.8348 171.13859 L 522.1668 171.13859 Z M 525.3348 155.87059 L 525.3348 168.05859 L 530.2188 168.05859 C 531.56816 168.05859 532.7195 167.88992 533.6728 167.55259 C 534.62616 167.21525 535.4108 166.77526 536.0268 166.23259 C 536.6428 165.68992 537.0975 165.05926 537.3908 164.34059 C 537.68416 163.62192 537.8308 162.88126 537.8308 162.11859 C 537.8308 160.12391 537.0315 158.58393 535.4328 157.49859 C 533.83415 156.41325 531.5682 155.87059 528.6348 155.87059 Z M 525.3348 142.62659 L 525.3348 152.79059 L 527.4468 152.79059 C 529.7935 152.79059 531.67815 152.36526 533.1008 151.51459 C 534.5235 150.66392 535.2348 149.24126 535.2348 147.24659 C 535.2348 145.83858 534.73616 144.7166 533.7388 143.88059 C 532.7415 143.04458 531.3188 142.62659 529.4708 142.62659 Z" fill="#77c167"/>
        </g>
      </g>
    </g>
  </g>
</svg>
